<svg width="16" height="19" viewBox="0 0 16 19" fill="none" xmlns="http://www.w3.org/2000/svg">
<path d="M7.70702 14.1666C8.72294 14.1666 9.55415 13.4166 9.55415 12.5C9.55415 11.5833 8.72294 10.8333 7.70702 10.8333C6.69109 10.8333 5.85988 11.5833 5.85988 12.5C5.85988 13.4166 6.69109 14.1666 7.70702 14.1666ZM13.2484 6.66665H12.3249V4.99998C12.3249 2.69998 10.2561 0.833313 7.70702 0.833313C5.15797 0.833313 3.08918 2.69998 3.08918 4.99998H4.84396C4.84396 3.57498 6.12772 2.41665 7.70702 2.41665C9.28632 2.41665 10.5701 3.57498 10.5701 4.99998V6.66665H2.16562C1.14969 6.66665 0.318481 7.41665 0.318481 8.33331V16.6666C0.318481 17.5833 1.14969 18.3333 2.16562 18.3333H13.2484C14.2643 18.3333 15.0956 17.5833 15.0956 16.6666V8.33331C15.0956 7.41665 14.2643 6.66665 13.2484 6.66665ZM13.2484 16.6666H2.16562V8.33331H13.2484V16.6666Z" fill="#2D4B97"/>
</svg>
